<?xml version="1.0" standalone="no"?>
<!DOCTYPE svg PUBLIC "-//W3C//DTD SVG 20010904//EN"
 "http://www.w3.org/TR/2001/REC-SVG-20010904/DTD/svg10.dtd">
<svg version="1.0" xmlns="http://www.w3.org/2000/svg"
 width="16.000000pt" height="16.000000pt" viewBox="0 0 16.000000 16.000000"
 preserveAspectRatio="xMidYMid meet">
<metadata>
Created by potrace 1.11, written by Peter Selinger 2001-2013
</metadata>
<g transform="translate(0.000000,16.000000) scale(0.001605,-0.001605)"
fill="#000000" stroke="none">
<path d="M4767 9854 c-1 -1 -42 -5 -92 -8 -49 -4 -106 -8 -125 -11 -19 -2 -60
-7 -90 -10 -30 -4 -93 -13 -140 -22 -47 -8 -96 -17 -110 -19 -204 -36 -493
-134 -680 -232 -79 -42 -222 -126 -245 -144 -5 -4 -48 -36 -95 -70 -213 -157
-391 -366 -519 -608 -33 -63 -72 -128 -87 -145 -15 -16 -52 -61 -83 -100 -31
-38 -63 -78 -73 -88 -38 -44 -160 -229 -208 -319 -49 -94 -120 -252 -120 -271
0 -17 -51 -112 -73 -136 -12 -13 -56 -48 -97 -79 -125 -91 -188 -166 -231
-275 -41 -101 -48 -166 -47 -496 0 -272 2 -324 18 -385 56 -218 249 -380 628
-527 18 -7 22 -17 23 -51 3 -163 1 -3279 -2 -3281 -2 -2 -164 -83 -359 -180
-195 -97 -402 -202 -460 -233 -58 -30 -134 -71 -170 -90 -74 -40 -83 -45 -164
-98 -79 -52 -90 -61 -168 -136 -76 -72 -154 -178 -217 -289 -42 -75 -135 -299
-166 -401 -43 -143 -97 -346 -114 -430 -6 -30 -14 -66 -17 -80 -5 -24 -28
-145 -38 -200 -3 -14 -7 -45 -10 -70 -6 -44 -11 -78 -21 -130 -3 -14 -7 -47
-11 -75 -3 -27 -10 -70 -14 -95 -5 -24 -6 -48 -4 -52 3 -5 2077 -8 4609 -8
3679 0 4604 3 4600 13 -2 6 -6 32 -10 57 -16 123 -27 203 -41 285 -9 50 -17
99 -19 110 -3 23 -15 90 -20 114 -36 184 -70 320 -120 486 -161 530 -331 771
-682 968 -214 121 -893 465 -1005 511 -34 13 -38 19 -39 53 0 21 -1 637 -1
1368 l0 1330 74 145 c40 80 79 159 85 175 28 72 71 195 68 195 -2 0 7 34 20
76 30 99 63 144 149 206 155 112 223 214 262 393 13 60 11 656 -2 727 -22 115
-62 187 -155 278 -52 51 -65 61 -164 128 -57 39 -72 55 -86 92 -10 25 -32 83
-50 130 -71 189 -189 393 -324 561 -72 88 -102 122 -225 248 -41 43 -88 99
-103 125 -99 161 -321 400 -492 526 -33 25 -62 47 -65 51 -30 34 -328 197
-475 259 -136 58 -478 162 -575 175 -14 2 -25 4 -25 5 0 1 -9 3 -20 5 -11 1
-63 9 -115 18 -155 26 -214 30 -448 31 -122 1 -224 1 -225 0z"/>
</g>
</svg>
